<svg xmlns="http://www.w3.org/2000/svg" width="1090" height="656" fill="none"><g fill="#000" clip-path="url(#a)"><path d="M719.85 436.6v-2c0-.28-.22-.5-.5-.5s-.5.22-.5.5v2c0 .28.22.5.5.5s.5-.22.5-.5Zm108.041 18.73-21.71-12.53-21.71 12.53v25.07l21.71 12.53 21.71-12.53v-25.07Zm-21.71 35.29-19.71-11.38v-22.76l19.71-11.38 19.71 11.38v22.76l-19.71 11.38Z"/><path d="m822.281 458.05-1.52.88c-.24.14-.32.44-.18.68a.495.495 0 0 0 .68.18l1.52-.88c.24-.14.32-.44.18-.68a.493.493 0 0 0-.68-.18Zm-10.181 5.88-1.73 1c-.24.14-.32.44-.18.68a.495.495 0 0 0 .68.18l1.73-1c.24-.14.32-.44.18-.68a.493.493 0 0 0-.68-.18Zm5.199-3-1.73 1c-.24.14-.32.44-.18.68a.495.495 0 0 0 .68.18l1.73-1c.24-.14.32-.44.18-.68a.496.496 0 0 0-.68-.18Zm-10.388 6-.72.42-.51-.29a.493.493 0 0 0-.68.18c-.14.24-.06.54.18.68l.51.29v.59c0 .28.22.5.5.5s.5-.22.5-.5v-.59l.72-.42c.24-.14.32-.44.18-.68a.493.493 0 0 0-.68-.18Zm-15.09-7.88-1.73-1a.493.493 0 0 0-.68.18c-.14.24-.06.54.18.68l1.73 1a.495.495 0 0 0 .68-.18c.14-.24.06-.54-.18-.68Zm10.388 6-1.73-1a.493.493 0 0 0-.68.18c-.14.24-.06.54.18.68l1.73 1a.495.495 0 0 0 .68-.18c.14-.24.06-.54-.18-.68Zm-5.199-3-1.73-1a.493.493 0 0 0-.68.18c-.14.24-.06.54.18.68l1.73 1a.495.495 0 0 0 .68-.18c.14-.24.06-.54-.18-.68Zm9.17 16.25c-.28 0-.5.22-.5.5v2c0 .28.22.5.5.5s.5-.22.5-.5v-2c0-.28-.22-.5-.5-.5Zm0-6c-.28 0-.5.22-.5.5v2c0 .28.22.5.5.5s.5-.22.5-.5v-2c0-.28-.22-.5-.5-.5Zm0 12c-.28 0-.5.22-.5.5v2c0 .28.22.5.5.5s.5-.22.5-.5v-2c0-.28-.22-.5-.5-.5Zm-220.009 83.48-.12 24.86 108.54 62.67 108.67-62.47v-25.07l-108.54-62.67-108.54 62.67-.01.01Zm215.09 23.91-106.66 61.32-106.54-61.52.11-22.55 106.55-61.52 106.54 61.52v22.76-.01Z"/><path d="m650.03 604.13-1.73-1a.493.493 0 0 0-.68.18c-.14.24-.06.54.18.68l1.73 1a.495.495 0 0 0 .68-.18c.14-.24.06-.54-.18-.68Zm-5.19-3-1.73-1a.493.493 0 0 0-.68.18c-.14.24-.06.54.18.68l1.73 1a.495.495 0 0 0 .68-.18c.14-.24.06-.54-.18-.68Zm-5.201-3.01-1.73-1a.493.493 0 0 0-.68.18c-.14.24-.06.54.18.68l1.73 1a.495.495 0 0 0 .68-.18c.14-.24.06-.54-.18-.68Zm15.58 9.02-1.73-1a.493.493 0 0 0-.68.18c-.14.24-.06.54.18.68l1.73 1a.495.495 0 0 0 .68-.18c.14-.24.06-.54-.18-.68Zm10.391 6.01-1.73-1a.496.496 0 0 0-.68.18c-.14.24-.06.54.18.68l1.73 1a.495.495 0 0 0 .68-.18c.14-.24.06-.54-.18-.68Zm5.189 3.01-1.73-1a.493.493 0 0 0-.68.18c-.14.24-.06.54.18.68l1.73 1a.495.495 0 0 0 .68-.18c.14-.24.06-.54-.18-.68Zm-36.349-21.05-1.73-1a.493.493 0 0 0-.68.18c-.14.24-.06.54.18.68l1.73 1a.495.495 0 0 0 .68-.18c.14-.24.06-.54-.18-.68Zm25.961 15.03-1.73-1a.493.493 0 0 0-.68.18c-.14.24-.06.54.18.68l1.73 1a.495.495 0 0 0 .68-.18c.14-.24.06-.54-.18-.68Zm-36.34-21.04-1.73-1a.493.493 0 0 0-.68.18c-.14.24-.06.54.18.68l1.73 1a.495.495 0 0 0 .68-.18c.14-.24.06-.54-.18-.68Zm-20.592-11.34c.14-.24.06-.54-.18-.68l-1.73-1a.496.496 0 0 0-.68.18c-.14.24-.06.54.18.68l1.73 1a.495.495 0 0 0 .68-.18Zm5.192 3.01c.14-.24.06-.54-.18-.68l-1.73-1a.493.493 0 0 0-.68.18c-.14.24-.06.54.18.68l1.73 1a.495.495 0 0 0 .68-.18Zm20.589 11.34-1.73-1a.493.493 0 0 0-.68.18c-.14.24-.06.54.18.68l1.73 1a.495.495 0 0 0 .68-.18c.14-.24.06-.54-.18-.68Zm-36.169-20.36c.14-.24.06-.54-.18-.68l-1.73-1a.493.493 0 0 0-.68.18c-.14.24-.06.54.18.68l1.73 1a.495.495 0 0 0 .68-.18Zm5.189 3c.14-.24.06-.54-.18-.68l-1.73-1a.493.493 0 0 0-.68.18c-.14.24-.06.54.18.68l1.73 1a.495.495 0 0 0 .68-.18Zm15.4 8.34-1.73-1a.493.493 0 0 0-.68.18c-.14.24-.06.54.18.68l1.73 1a.495.495 0 0 0 .68-.18c.14-.24.06-.54-.18-.68Zm62.311 36.07-1.73-1a.493.493 0 0 0-.68.18c-.14.24-.06.54.18.68l1.73 1a.495.495 0 0 0 .68-.18c.14-.24.06-.54-.18-.68Zm-57.122-33.06-1.729-1a.493.493 0 0 0-.68.18c-.14.24-.06.54.18.68l1.729 1a.495.495 0 0 0 .68-.18c.14-.24.06-.54-.18-.68Zm117.521 20.66c.08 0 .17-.02.25-.07l1.729-1c.24-.14.32-.44.18-.68a.496.496 0 0 0-.68-.18l-1.729 1c-.24.14-.32.44-.18.68.09.16.26.25.43.25Zm20.8-11.96c.08 0 .17-.02.25-.07l1.73-1c.24-.14.32-.44.18-.68a.496.496 0 0 0-.68-.18l-1.73 1c-.24.14-.32.44-.18.68.09.16.26.25.43.25Zm5.2-3c.08 0 .17-.02.25-.07l1.729-1c.24-.14.32-.44.18-.68a.496.496 0 0 0-.68-.18l-1.729 1c-.24.14-.32.44-.18.68.09.16.26.25.43.25Zm5.201-2.99c.08 0 .17-.02.25-.07l1.73-1c.24-.14.32-.44.18-.68a.496.496 0 0 0-.68-.18l-1.73 1c-.24.14-.32.44-.18.68.09.16.26.25.43.25Zm10.398-5.98c.08 0 .17-.02.25-.07l1.73-1c.24-.14.32-.44.18-.68a.496.496 0 0 0-.68-.18l-1.73 1c-.24.14-.32.44-.18.68.09.16.26.25.43.25Zm-5.199 2.99c.08 0 .17-.02.25-.07l1.73-1c.24-.14.32-.44.18-.68a.496.496 0 0 0-.68-.18l-1.73 1c-.24.14-.32.44-.18.68.09.16.26.25.43.25Zm-41.609 23.94c.08 0 .17-.02.25-.07l1.73-1c.24-.14.32-.44.18-.68a.496.496 0 0 0-.68-.18l-1.73 1c-.24.14-.32.44-.18.68.09.16.26.25.43.25Zm20.808-11.97c.08 0 .17-.02.25-.07l1.73-1c.24-.14.32-.44.18-.68a.496.496 0 0 0-.68-.18l-1.73 1c-.24.14-.32.44-.18.68.09.16.26.25.43.25Zm-5.199 2.99c.08 0 .17-.02.25-.07l1.73-1c.24-.14.32-.44.18-.68a.496.496 0 0 0-.68-.18l-1.73 1c-.24.14-.32.44-.18.68.09.16.26.25.43.25Zm-55.219 27.4-1.73-1a.496.496 0 0 0-.68.18c-.14.24-.06.54.18.68l1.73 1a.495.495 0 0 0 .68-.18c.14-.24.06-.54-.18-.68Zm10.578-2.22a.496.496 0 0 0-.68-.18l-1.73 1c-.24.14-.32.44-.18.68a.495.495 0 0 0 .68.18l1.73-1c.24-.14.32-.44.18-.68Zm-20.969-3.79-1.73-1a.493.493 0 0 0-.68.18c-.14.24-.06.54.18.68l1.73 1a.495.495 0 0 0 .68-.18c.14-.24.06-.54-.18-.68Zm102.01-42.34c.08 0 .17-.02.25-.07l1.73-1c.24-.14.32-.44.18-.68a.496.496 0 0 0-.68-.18l-1.73 1c-.24.14-.32.44-.18.68.09.16.26.25.43.25Zm-75.84 43.14a.496.496 0 0 0-.68-.18l-1.73 1c-.24.14-.32.44-.18.68a.495.495 0 0 0 .68.18l1.73-1c.24-.14.32-.44.18-.68Zm-20.971 2.21-1.73-1a.493.493 0 0 0-.68.18c-.14.24-.06.54.18.68l1.73 1a.495.495 0 0 0 .68-.18c.14-.24.06-.54-.18-.68Zm102.011-48.34c.08 0 .17-.02.25-.07l1.729-1c.24-.14.32-.44.18-.68a.493.493 0 0 0-.68-.18l-1.729 1c-.24.14-.32.44-.18.68.09.16.26.25.43.25Zm-65.44 37.15a.496.496 0 0 0-.68-.18l-1.73 1c-.24.14-.32.44-.18.68a.495.495 0 0 0 .68.18l1.73-1c.24-.14.32-.44.18-.68Zm70.641-40.14c.08 0 .17-.02.25-.07l1.73-1c.24-.14.32-.44.18-.68a.496.496 0 0 0-.68-.18l-1.73 1c-.24.14-.32.44-.18.68.09.16.26.25.43.25Zm-52 29.92c.08 0 .17-.02.25-.07l1.73-1c.24-.14.32-.44.18-.68a.496.496 0 0 0-.68-.18l-1.73 1c-.24.14-.32.44-.18.68.09.16.26.25.43.25Zm-31.211 17.96c.08 0 .17-.02.25-.07l1.73-1c.24-.14.32-.44.18-.68a.496.496 0 0 0-.68-.18l-1.73 1c-.24.14-.32.44-.18.68.09.16.26.25.43.25Zm6.691-4.93-1.73 1c-.24.14-.32.44-.18.68a.495.495 0 0 0 .68.18l1.73-1c.24-.14.32-.44.18-.68a.496.496 0 0 0-.68-.18Zm-22.701 13.12c-.26.02-.46.23-.45.5v.84c.01.27.23.5.51.5s.5-.23.5-.5v-.58s.07 0 .1-.03l1.73-1c.24-.14.32-.44.18-.68a.496.496 0 0 0-.68-.18l-1.73 1c-.07.04-.12.09-.16.15v-.02Zm31.609-17.17c.08 0 .17-.02.25-.07l1.73-1c.24-.14.32-.44.18-.68a.496.496 0 0 0-.68-.18l-1.73 1c-.24.14-.32.44-.18.68.09.16.26.25.43.25Zm-31.409 34c-.28 0-.5.23-.5.5l.02 2c0 .27.23.5.5.5.28 0 .5-.23.5-.5l-.02-2c0-.28-.24-.48-.5-.5Zm-.031-3c.28 0 .5-.23.5-.5l-.019-2c0-.28-.19-.49-.5-.5-.28 0-.5.23-.5.5l.019 2c0 .27.23.5.5.5Zm-.058-6c.28 0 .5-.23.5-.5l-.02-2c0-.28-.27-.5-.5-.5-.28 0-.5.23-.5.5l.02 2c0 .27.23.5.5.5ZM491.94 512.87l-1.73-1a.493.493 0 0 0-.68.18c-.14.24-.06.54.18.68l1.73 1a.495.495 0 0 0 .68-.18c.14-.24.06-.54-.18-.68Zm-10.391-6.01-1.73-1a.493.493 0 0 0-.68.18c-.14.24-.06.54.18.68l1.73 1a.495.495 0 0 0 .68-.18c.14-.24.06-.54-.18-.68Zm5.192 3.01-1.73-1a.493.493 0 0 0-.68.18c-.14.24-.06.54.18.68l1.73 1a.495.495 0 0 0 .68-.18c.14-.24.06-.54-.18-.68Zm-10.381-6.02-1.73-1a.493.493 0 0 0-.68.18c-.14.24-.06.54.18.68l1.73 1a.495.495 0 0 0 .68-.18c.14-.24.06-.54-.18-.68Zm-15.58-9.01-1.73-1a.493.493 0 0 0-.68.18c-.14.24-.06.54.18.68l1.73 1a.495.495 0 0 0 .68-.18c.14-.24.06-.54-.18-.68Zm5.189 3-1.73-1a.493.493 0 0 0-.68.18c-.14.24-.06.54.18.68l1.73 1a.495.495 0 0 0 .68-.18c.14-.24.06-.54-.18-.68Zm5.201 3.01-1.73-1a.496.496 0 0 0-.68.18c-.14.24-.06.54.18.68l1.73 1a.495.495 0 0 0 .68-.18c.14-.24.06-.54-.18-.68Zm41.539 24.05-1.73-1a.493.493 0 0 0-.68.18c-.14.24-.06.54.18.68l1.73 1a.495.495 0 0 0 .68-.18c.14-.24.06-.54-.18-.68Zm-5.199-3.01-1.73-1a.491.491 0 0 0-.68.18c-.14.24-.06.54.18.68l1.73 1a.495.495 0 0 0 .68-.18c.14-.24.06-.54-.18-.68Zm93.78-38.1a.496.496 0 0 0-.68-.18l-1.73 1c-.24.14-.32.44-.18.68a.495.495 0 0 0 .68.18l1.73-1c.24-.14.32-.44.18-.68Zm-98.969 35.1-1.73-1a.493.493 0 0 0-.68.18c-.14.24-.06.54.18.68l1.73 1a.495.495 0 0 0 .68-.18c.14-.24.06-.54-.18-.68Zm-5.192-3.01-1.73-1a.496.496 0 0 0-.68.18c-.14.24-.06.54.18.68l1.73 1a.495.495 0 0 0 .68-.18c.14-.24.06-.54-.18-.68Zm124.962-44.05a.496.496 0 0 0-.68-.18l-1.73 1c-.24.14-.32.44-.18.68a.495.495 0 0 0 .68.18l1.73-1c.24-.14.32-.44.18-.68Zm-104.19 56.07-1.73-1a.493.493 0 0 0-.68.18c-.14.24-.06.54.18.68l1.73 1a.495.495 0 0 0 .68-.18c.14-.24.06-.54-.18-.68Zm-93.291-53.42c.14-.24.06-.54-.18-.68l-1.73-1a.493.493 0 0 0-.68.18c-.14.24-.06.54.18.68l1.73 1a.495.495 0 0 0 .68-.18Zm-5.189-3.01c.14-.24.06-.54-.18-.68l-1.73-1a.493.493 0 0 0-.68.18c-.14.24-.06.54.18.68l1.73 1a.495.495 0 0 0 .68-.18Zm197.468 3.35a.496.496 0 0 0-.68-.18l-1.73 1c-.24.14-.32.44-.18.68a.495.495 0 0 0 .68.18l1.73-1c.24-.14.32-.44.18-.68Zm-10.398 5.98a.496.496 0 0 0-.68-.18l-1.73 1c-.24.14-.32.44-.18.68a.495.495 0 0 0 .68.18l1.73-1c.24-.14.32-.44.18-.68Zm5.199-2.99a.496.496 0 0 0-.68-.18l-1.73 1c-.24.14-.32.44-.18.68a.495.495 0 0 0 .68.18l1.73-1c.24-.14.32-.44.18-.68Zm-176.689 2.68c.14-.24.06-.54-.18-.68l-1.73-1a.493.493 0 0 0-.68.18c-.14.24-.06.54.18.68l1.73 1a.495.495 0 0 0 .68-.18Zm10.199 5.33-1.73-1a.496.496 0 0 0-.68.18c-.14.24-.06.54.18.68l1.73 1a.495.495 0 0 0 .68-.18c.14-.24.06-.54-.18-.68Zm-15.391-8.34c.14-.24.06-.54-.18-.68l-1.73-1a.493.493 0 0 0-.68.18c-.14.24-.06.54.18.68l1.73 1a.495.495 0 0 0 .68-.18Zm20.592 11.34-1.73-1a.493.493 0 0 0-.68.18c-.14.24-.06.54.18.68l1.73 1a.495.495 0 0 0 .68-.18c.14-.24.06-.54-.18-.68Zm5.189 3.01-1.73-1a.493.493 0 0 0-.68.18c-.14.24-.06.54.18.68l1.73 1a.495.495 0 0 0 .68-.18c.14-.24.06-.54-.18-.68Zm-15.58-9.02-1.73-1a.493.493 0 0 0-.68.18c-.14.24-.06.54.18.68l1.73 1a.495.495 0 0 0 .68-.18c.14-.24.06-.54-.18-.68Zm145.68 9.96a.496.496 0 0 0-.68-.18l-1.73 1c-.24.14-.32.44-.18.68a.495.495 0 0 0 .68.18l1.73-1c.24-.14.32-.44.18-.68Zm-26.01 14.96a.496.496 0 0 0-.68-.18l-1.73 1c-.24.14-.32.44-.18.68a.495.495 0 0 0 .68.18l1.73-1c.24-.14.32-.44.18-.68Zm5.2-2.99a.496.496 0 0 0-.68-.18l-1.73 1c-.24.14-.32.44-.18.68a.495.495 0 0 0 .68.18l1.73-1c.24-.14.32-.44.18-.68Zm-10.401 5.99a.496.496 0 0 0-.68-.18l-1.73 1c-.24.14-.32.44-.18.68a.495.495 0 0 0 .68.18l1.73-1c.24-.14.32-.44.18-.68Zm15.602-8.98a.496.496 0 0 0-.68-.18l-1.73 1c-.24.14-.32.44-.18.68a.495.495 0 0 0 .68.18l1.73-1c.24-.14.32-.44.18-.68Zm5.199-2.99a.496.496 0 0 0-.68-.18l-1.73 1c-.24.14-.32.44-.18.68a.495.495 0 0 0 .68.18l1.73-1c.24-.14.32-.44.18-.68Zm20.811-11.97a.493.493 0 0 0-.68-.18l-1.73 1c-.24.14-.32.44-.18.68a.495.495 0 0 0 .68.18l1.73-1c.24-.14.32-.44.18-.68Zm-5.202 2.99a.496.496 0 0 0-.68-.18l-1.73 1c-.24.14-.32.44-.18.68a.495.495 0 0 0 .68.18l1.73-1c.24-.14.32-.44.18-.68Zm-41.609 23.94a.496.496 0 0 0-.68-.18l-1.73 1c-.24.14-.32.44-.18.68a.495.495 0 0 0 .68.18l1.73-1c.24-.14.32-.44.18-.68Zm31.199-17.96a.496.496 0 0 0-.68-.18l-1.73 1c-.24.14-.32.44-.18.68a.495.495 0 0 0 .68.18l1.73-1c.24-.14.32-.44.18-.68Zm-36.398 20.95a.496.496 0 0 0-.68-.18l-1.73 1c-.24.14-.32.44-.18.68a.495.495 0 0 0 .68.18l1.73-1c.24-.14.32-.44.18-.68Zm-10.401 5.98a.496.496 0 0 0-.68-.18l-1.73 1c-.24.14-.32.44-.18.68a.495.495 0 0 0 .68.18l1.73-1c.24-.14.32-.44.18-.68Zm-10.4 5.99a.496.496 0 0 0-.68-.18l-1.73 1c-.07.04-.12.09-.16.15-.26.02-.46.23-.45.5v.84c.01.27.23.5.51.5s.5-.23.5-.5v-.58s.07 0 .1-.03l1.73-1c.24-.14.32-.44.18-.68v-.02Zm15.6-8.98a.496.496 0 0 0-.68-.18l-1.73 1c-.24.14-.32.44-.18.68a.495.495 0 0 0 .68.18l1.73-1c.24-.14.32-.44.18-.68Zm-10.401 5.99a.496.496 0 0 0-.68-.18l-1.73 1c-.24.14-.32.44-.18.68a.495.495 0 0 0 .68.18l1.73-1c.24-.14.32-.44.18-.68Zm-7.579 20.79c-.28 0-.5.23-.5.5l.02 2c0 .27.23.5.5.5.28 0 .5-.23.5-.5l-.02-2c0-.27-.23-.5-.5-.5Zm-.091-9c.28 0 .5-.23.5-.5l-.02-2c0-.27-.23-.5-.5-.5-.28 0-.5.23-.5.5l.02 2c0 .27.23.5.5.5Zm.061 6c.28 0 .5-.23.5-.5l-.02-2c0-.28-.21-.47-.5-.5-.28 0-.5.23-.5.5l.02 2c0 .27.23.5.5.5ZM948.94 51.09l-43.42 25.07v25.07l43.42 25.07 15.89-9.18 27.519-15.89V76.16L948.93 51.09h.01Zm41.419 48.98-41.419 23.91-41.42-23.91V77.31l41.42-23.91 41.419 23.91v22.76Z"/><path d="M976.51 85.33a.495.495 0 0 0 .68.18l1.73-1c.24-.14.32-.44.18-.68a.496.496 0 0 0-.68-.18l-1.73 1c-.24.14-.32.44-.18.68Zm-24.041 13.34-1.73 1c-.24.14-.32.44-.18.68a.495.495 0 0 0 .68.18l1.73-1c.24-.14.32-.44.18-.68a.496.496 0 0 0-.68-.18Zm18.852-10.34a.495.495 0 0 0 .68.18l1.73-1c.24-.14.32-.44.18-.68a.496.496 0 0 0-.68-.18l-1.73 1c-.24.14-.32.44-.18.68Zm-5.192 3.01a.495.495 0 0 0 .68.18l1.73-1c.24-.14.32-.44.18-.68a.496.496 0 0 0-.68-.18l-1.73 1c-.24.14-.32.44-.18.68Zm-5.189 3.01a.495.495 0 0 0 .68.18l1.73-1c.24-.14.32-.44.18-.68a.496.496 0 0 0-.68-.18l-1.73 1c-.24.14-.32.44-.18.68Zm20.77-12.03a.495.495 0 0 0 .68.18l1.729-1c.24-.14.32-.44.18-.68a.496.496 0 0 0-.68-.18l-1.729 1c-.24.14-.32.44-.18.68Zm5.191-3.01a.495.495 0 0 0 .68.18l1.01-.58c.24-.14.32-.44.18-.68a.496.496 0 0 0-.68-.18l-1.01.58c-.24.14-.32.44-.18.68ZM911.43 79l-1.73-1a.493.493 0 0 0-.68.18c-.14.24-.06.54.18.68l1.73 1a.495.495 0 0 0 .68-.18c.14-.24.06-.54-.18-.68Zm44.321 18.35a.495.495 0 0 0 .68.18l1.73-1c.24-.14.32-.44.18-.68a.496.496 0 0 0-.68-.18l-1.73 1c-.24.14-.32.44-.18.68Zm-13.171-.31-1.73-1a.493.493 0 0 0-.68.18c-.14.24-.06.54.18.68l1.73 1a.495.495 0 0 0 .68-.18c.14-.24.06-.54-.18-.68Zm-15.57-9.02-1.73-1a.493.493 0 0 0-.68.18c-.14.24-.06.54.18.68l1.73 1a.495.495 0 0 0 .68-.18c.14-.24.06-.54-.18-.68Zm-5.199-3.01-1.73-1a.493.493 0 0 0-.68.18c-.14.24-.06.54.18.68l1.73 1a.495.495 0 0 0 .68-.18c.14-.24.06-.54-.18-.68Zm15.578 9.02-1.73-1a.493.493 0 0 0-.68.18c-.14.24-.06.54.18.68l1.73 1a.495.495 0 0 0 .68-.18c.14-.24.06-.54-.18-.68Zm-5.189-3.01-1.73-1a.493.493 0 0 0-.68.18c-.14.24-.06.54.18.68l1.73 1a.495.495 0 0 0 .68-.18c.14-.24.06-.54-.18-.68ZM916.619 82l-1.729-1a.493.493 0 0 0-.68.18c-.14.24-.06.54.18.68l1.729 1a.495.495 0 0 0 .68-.18c.14-.24.06-.54-.18-.68Zm31.161 18.04-1.73-1a.493.493 0 0 0-.68.18c-.14.24-.06.54.18.68l1.73 1a.495.495 0 0 0 .68-.18c.14-.24.06-.54-.18-.68Zm1.159 17.63c-.28 0-.5.22-.5.5v2c0 .28.22.5.5.5s.5-.22.5-.5v-2c0-.28-.22-.5-.5-.5Zm0-6c-.28 0-.5.22-.5.5v2c0 .28.22.5.5.5s.5-.22.5-.5v-2c0-.28-.22-.5-.5-.5Zm0-6c-.28 0-.5.22-.5.5v2c0 .28.22.5.5.5s.5-.22.5-.5v-2c0-.28-.22-.5-.5-.5Zm0-4.88c-.28 0-.5.22-.5.5v.88c0 .28.22.5.5.5s.5-.22.5-.5v-.88c0-.28-.22-.5-.5-.5ZM697.641 405.12v25.07l10.85 6.27 10.85 6.27 21.71-12.53v-25.07l-21.71-12.53-21.71 12.53.01-.01Zm2 23.92v-22.76l19.71-11.38 19.71 11.38v22.76l-19.71 11.38-19.71-11.38Z"/><path d="M728.549 412.41a.495.495 0 0 0 .68.18l1.73-1c.24-.14.32-.44.18-.68a.493.493 0 0 0-.68-.18l-1.73 1c-.24.14-.32.44-.18.68Zm-5.199 3a.495.495 0 0 0 .68.18l1.73-1c.24-.14.32-.44.18-.68a.493.493 0 0 0-.68-.18l-1.73 1c-.24.14-.32.44-.18.68Zm10.401-6a.495.495 0 0 0 .68.18l1.52-.88c.24-.14.32-.44.18-.68a.496.496 0 0 0-.68-.18l-1.52.88c-.24.14-.32.44-.18.68Zm-18.372 5.44-1.73-1a.493.493 0 0 0-.68.18c-.14.24-.06.54.18.68l1.73 1a.495.495 0 0 0 .68-.18c.14-.24.06-.54-.18-.68Zm-5.199-3-1.73-1a.493.493 0 0 0-.68.18c-.14.24-.06.54.18.68l1.73 1a.495.495 0 0 0 .68-.18c.14-.24.06-.54-.18-.68Zm-5.199-3-1.73-1a.493.493 0 0 0-.68.18c-.14.24-.06.54.18.68l1.73 1a.495.495 0 0 0 .68-.18c.14-.24.06-.54-.18-.68Zm14.369 13.25c-.28 0-.5.22-.5.5v2c0 .28.22.5.5.5s.5-.22.5-.5v-2c0-.28-.22-.5-.5-.5Zm0 6c-.28 0-.5.22-.5.5v2c0 .28.22.5.5.5s.5-.22.5-.5v-2c0-.28-.22-.5-.5-.5Zm-.499-9.5c0 .28.22.5.5.5s.5-.22.5-.5v-.59l.72-.42c.24-.14.32-.44.18-.68a.493.493 0 0 0-.68-.18l-.72.42-.51-.29a.493.493 0 0 0-.68.18c-.14.24-.06.54.18.68l.51.29v.59Zm65.629-63.62v25.07l21.71 12.53 21.711-12.53v-25.07l-21.711-12.53-21.71 12.53Zm2 1.16 19.71-11.38 19.711 11.38v22.76l-19.711 11.38-19.71-11.38v-22.76Z"/><path d="M810.19 365.27a.495.495 0 0 0 .68.18l1.73-1c.24-.14.32-.44.18-.68a.493.493 0 0 0-.68-.18l-1.73 1c-.24.14-.32.44-.18.68Zm10.391-6a.495.495 0 0 0 .68.18l1.52-.88c.24-.14.32-.44.18-.68a.493.493 0 0 0-.68-.18l-1.52.88c-.24.14-.32.44-.18.68Zm-5.192 3a.495.495 0 0 0 .68.18l1.73-1c.24-.14.32-.44.18-.68a.496.496 0 0 0-.68-.18l-1.73 1c-.24.14-.32.44-.18.68Zm-10.398 4.63c-.14.24-.06.54.18.68l.51.29v.59c0 .28.22.5.5.5s.5-.22.5-.5v-.59l.72-.42c.24-.14.32-.44.18-.68a.493.493 0 0 0-.68-.18l-.72.42-.51-.29a.493.493 0 0 0-.68.18Zm-15.59-9.01c-.14.24-.06.54.18.68l1.73 1a.495.495 0 0 0 .68-.18c.14-.24.06-.54-.18-.68l-1.73-1a.493.493 0 0 0-.68.18Zm5.199 3.01c-.14.24-.06.54.18.68l1.73 1a.495.495 0 0 0 .68-.18c.14-.24.06-.54-.18-.68l-1.73-1a.493.493 0 0 0-.68.18Zm5.199 3c-.14.24-.06.54.18.68l1.73 1a.495.495 0 0 0 .68-.18c.14-.24.06-.54-.18-.68l-1.73-1a.493.493 0 0 0-.68.18Zm6.381 20.06c-.28 0-.5.22-.5.5v2c0 .28.22.5.5.5s.5-.22.5-.5v-2c0-.28-.22-.5-.5-.5Zm0-6c-.28 0-.5.22-.5.5v2c0 .28.22.5.5.5s.5-.22.5-.5v-2c0-.28-.22-.5-.5-.5Zm0-6c-.28 0-.5.22-.5.5v2c0 .28.22.5.5.5s.5-.22.5-.5v-2c0-.28-.22-.5-.5-.5Zm-86.83-79.65-10.85 6.27-10.85 6.27v25.07l21.71 12.53 21.71-12.53v-25.07l-21.71-12.53-.01-.01Zm19.71 36.45-19.71 11.38-19.71-11.38V306l19.71-11.38L739.06 306v22.76Z"/><path d="M733.751 309.13a.495.495 0 0 0 .68.18l1.52-.88c.24-.14.32-.44.18-.68a.496.496 0 0 0-.68-.18l-1.52.88c-.24.14-.32.44-.18.68Zm-5.202 3a.495.495 0 0 0 .68.18l1.73-1c.24-.14.32-.44.18-.68a.493.493 0 0 0-.68-.18l-1.73 1c-.24.14-.32.44-.18.68Zm-5.199 3a.495.495 0 0 0 .68.18l1.73-1c.24-.14.32-.44.18-.68a.493.493 0 0 0-.68-.18l-1.73 1c-.24.14-.32.44-.18.68Zm-18.369-6.56-1.73-1a.493.493 0 0 0-.68.18c-.14.24-.06.54.18.68l1.73 1a.495.495 0 0 0 .68-.18c.14-.24.06-.54-.18-.68Zm13.86 8a.493.493 0 0 0-.68.18c-.14.24-.06.54.18.68l.51.29v.59c0 .28.22.5.5.5s.5-.22.5-.5v-.59l.72-.42c.24-.14.32-.44.18-.68a.493.493 0 0 0-.68-.18l-.72.42-.51-.29Zm-8.661-5-1.73-1a.493.493 0 0 0-.68.18c-.14.24-.06.54.18.68l1.73 1a.495.495 0 0 0 .68-.18c.14-.24.06-.54-.18-.68Zm5.199 3-1.73-1a.493.493 0 0 0-.68.18c-.14.24-.06.54.18.68l1.73 1a.495.495 0 0 0 .68-.18c.14-.24.06-.54-.18-.68Zm3.971 7.25c-.28 0-.5.22-.5.5v2c0 .28.22.5.5.5s.5-.22.5-.5v-2c0-.28-.22-.5-.5-.5Zm0 6c-.28 0-.5.22-.5.5v2c0 .28.22.5.5.5s.5-.22.5-.5v-2c0-.28-.22-.5-.5-.5Zm0 6c-.28 0-.5.22-.5.5v2c0 .28.22.5.5.5s.5-.22.5-.5v-2c0-.28-.22-.5-.5-.5Zm86.831-91.65-21.71 12.53v25.07l13.76 7.95 7.95 4.59 21.71-12.53v-25.07l-21.71-12.53v-.01Zm-19.7 36.45v-22.76l19.71-11.38 19.71 11.38v22.76L806.191 290l-19.71-11.38Z"/><path d="M820.581 258.99a.495.495 0 0 0 .68.18l1.52-.88c.24-.14.32-.44.18-.68a.493.493 0 0 0-.68-.18l-1.52.88c-.24.14-.32.44-.18.68Zm-10.391 6a.495.495 0 0 0 .68.18l1.73-1c.24-.14.32-.44.18-.68a.493.493 0 0 0-.68-.18l-1.73 1c-.24.14-.32.44-.18.68Zm5.199-3a.495.495 0 0 0 .68.18l1.73-1c.24-.14.32-.44.18-.68a.493.493 0 0 0-.68-.18l-1.73 1c-.24.14-.32.44-.18.68Zm-23.568-3.56-1.73-1a.493.493 0 0 0-.68.18c-.14.24-.06.54.18.68l1.73 1a.495.495 0 0 0 .68-.18c.14-.24.06-.54-.18-.68Zm5.189 3-1.73-1a.493.493 0 0 0-.68.18c-.14.24-.06.54.18.68l1.73 1a.495.495 0 0 0 .68-.18c.14-.24.06-.54-.18-.68Zm5.199 3.01-1.73-1a.493.493 0 0 0-.68.18c-.14.24-.06.54.18.68l1.73 1a.495.495 0 0 0 .68-.18c.14-.24.06-.54-.18-.68Zm3.971 13.24c-.28 0-.5.22-.5.5v2c0 .28.22.5.5.5s.5-.22.5-.5v-2c0-.28-.22-.5-.5-.5Zm.5 8.5v-2c0-.28-.22-.5-.5-.5s-.5.22-.5.5v2c0 .28.22.5.5.5s.5-.22.5-.5Zm-.5-14.5c-.28 0-.5.22-.5.5v2c0 .28.22.5.5.5s.5-.22.5-.5v-2c0-.28-.22-.5-.5-.5Zm-.499-3.5c0 .28.22.5.5.5s.5-.22.5-.5v-.59l.72-.42c.24-.14.32-.44.18-.68a.496.496 0 0 0-.68-.18l-.72.42-.51-.29a.493.493 0 0 0-.68.18c-.14.24-.06.54.18.68l.51.29v.59Zm-12.78-118.61-8.421 4.86v25.07l21.71 12.53 21.711-12.53v-25.07l-17.12-9.89-4.591-2.65-13.289 7.67v.01Zm-6.421 28.77v-22.76l19.71-11.38 19.711 11.38v22.76l-19.711 11.38-19.71-11.38Z"/><path d="M810.19 164.72a.495.495 0 0 0 .68.18l1.73-1c.24-.14.32-.44.18-.68a.493.493 0 0 0-.68-.18l-1.73 1c-.24.14-.32.44-.18.68Zm10.391-6a.495.495 0 0 0 .68.18l1.52-.88c.24-.14.32-.44.18-.68a.493.493 0 0 0-.68-.18l-1.52.88c-.24.14-.32.44-.18.68Zm-5.192 3a.495.495 0 0 0 .68.18l1.73-1c.24-.14.32-.44.18-.68a.496.496 0 0 0-.68-.18l-1.73 1c-.24.14-.32.44-.18.68Zm-18.379-.56-1.73-1a.493.493 0 0 0-.68.18c-.14.24-.06.54.18.68l1.73 1a.495.495 0 0 0 .68-.18c.14-.24.06-.54-.18-.68Zm5.199 3-1.73-1a.493.493 0 0 0-.68.18c-.14.24-.06.54.18.68l1.73 1a.495.495 0 0 0 .68-.18c.14-.24.06-.54-.18-.68Zm-10.388-6-1.73-1a.493.493 0 0 0-.68.18c-.14.24-.06.54.18.68l1.73 1a.495.495 0 0 0 .68-.18c.14-.24.06-.54-.18-.68Zm14.359 13.25c-.28 0-.5.22-.5.5v2c0 .28.22.5.5.5s.5-.22.5-.5v-2c0-.28-.22-.5-.5-.5Zm0 6c-.28 0-.5.22-.5.5v2c0 .28.22.5.5.5s.5-.22.5-.5v-2c0-.28-.22-.5-.5-.5Zm.5 8.5v-2c0-.28-.22-.5-.5-.5s-.5.22-.5.5v2c0 .28.22.5.5.5s.5-.22.5-.5Zm-.999-18c0 .28.22.5.5.5s.5-.22.5-.5v-.59l.72-.42c.24-.14.32-.44.18-.68a.496.496 0 0 0-.68-.18l-.72.42-.51-.29a.493.493 0 0 0-.68.18c-.14.24-.06.54.18.68l.51.29v.59Zm-520.51-25.95-21.71 12.53v25.07l21.71 12.53 21.71-12.53v-25.07l-21.71-12.53Zm0 47.83-19.71-11.38v-22.76l19.71-11.38 19.71 11.38v22.76l-19.71 11.38Z"/><path d="m296.289 160.1-1.73 1c-.24.14-.32.44-.18.68a.495.495 0 0 0 .68.18l1.73-1c.24-.14.32-.44.18-.68a.493.493 0 0 0-.68-.18Zm-5.199 3-1.73 1c-.24.14-.32.44-.18.68a.495.495 0 0 0 .68.18l1.73-1c.24-.14.32-.44.18-.68a.493.493 0 0 0-.68-.18Zm-5.189 3-.72.42-.51-.29a.493.493 0 0 0-.68.18c-.14.24-.06.54.18.68l.51.29v.59c0 .28.22.5.5.5s.5-.22.5-.5v-.59l.72-.42c.24-.14.32-.44.18-.68a.493.493 0 0 0-.68-.18Zm15.37-8.88-1.52.88c-.24.14-.32.44-.18.68a.495.495 0 0 0 .68.18l1.52-.88c.24-.14.32-.44.18-.68a.493.493 0 0 0-.68-.18Zm-25.271 4-1.73-1a.493.493 0 0 0-.68.18c-.14.24-.06.54.18.68l1.73 1a.495.495 0 0 0 .68-.18c.14-.24.06-.54-.18-.68Zm5.2 3-1.73-1a.493.493 0 0 0-.68.18c-.14.24-.06.54.18.68l1.73 1a.495.495 0 0 0 .68-.18c.14-.24.06-.54-.18-.68Zm-10.389-6-1.73-1a.493.493 0 0 0-.68.18c-.14.24-.06.54.18.68l1.73 1a.495.495 0 0 0 .68-.18c.14-.24.06-.54-.18-.68Zm14.359 25.25c-.28 0-.5.22-.5.5v2c0 .28.22.5.5.5s.5-.22.5-.5v-2c0-.28-.22-.5-.5-.5Zm0-6c-.28 0-.5.22-.5.5v2c0 .28.22.5.5.5s.5-.22.5-.5v-2c0-.28-.22-.5-.5-.5Zm0-6c-.28 0-.5.22-.5.5v2c0 .28.22.5.5.5s.5-.22.5-.5v-2c0-.28-.22-.5-.5-.5Zm86.841 20.63-21.71 12.53v25.07l21.71 12.53 7.95-4.59 13.76-7.95v-25.07l-21.71-12.53v.01Zm19.71 36.45-19.71 11.38-19.71-11.38v-22.76l19.71-11.38 19.71 11.38v22.76Z"/><path d="m388.111 207.36-1.52.88c-.24.14-.32.44-.18.68a.495.495 0 0 0 .68.18l1.52-.88c.24-.14.32-.44.18-.68a.493.493 0 0 0-.68-.18Zm-15.38 8.88-.72.42-.51-.29a.493.493 0 0 0-.68.18c-.14.24-.06.54.18.68l.51.29v.59c0 .28.22.5.5.5s.5-.22.5-.5v-.59l.72-.42c.24-.14.32-.44.18-.68a.493.493 0 0 0-.68-.18Zm5.199-3-1.73 1c-.24.14-.32.44-.18.68a.495.495 0 0 0 .68.18l1.73-1c.24-.14.32-.44.18-.68a.496.496 0 0 0-.68-.18Zm5.19-3-1.73 1c-.24.14-.32.44-.18.68a.495.495 0 0 0 .68.18l1.73-1c.24-.14.32-.44.18-.68a.493.493 0 0 0-.68-.18Zm-25.481-1.88-1.73-1a.493.493 0 0 0-.68.18c-.14.24-.06.54.18.68l1.73 1a.495.495 0 0 0 .68-.18c.14-.24.06-.54-.18-.68Zm5.201 3-1.73-1a.493.493 0 0 0-.68.18c-.14.24-.06.54.18.68l1.73 1a.495.495 0 0 0 .68-.18c.14-.24.06-.54-.18-.68Zm5.199 3-1.73-1a.493.493 0 0 0-.68.18c-.14.24-.06.54.18.68l1.73 1a.495.495 0 0 0 .68-.18c.14-.24.06-.54-.18-.68Zm3.971 7.25c-.28 0-.5.22-.5.5v2c0 .28.22.5.5.5s.5-.22.5-.5v-2c0-.28-.22-.5-.5-.5Zm0 6c-.28 0-.5.22-.5.5v2c0 .28.22.5.5.5s.5-.22.5-.5v-2c0-.28-.22-.5-.5-.5Zm0 6c-.28 0-.5.22-.5.5v2c0 .28.22.5.5.5s.5-.22.5-.5v-2c0-.28-.22-.5-.5-.5Zm260.501-91.72-10.85 6.27-10.85 6.27v25.07l10.85 6.27 10.85 6.27 21.71-12.53v-25.07l-15.26-8.81-6.45-3.72v-.02Zm19.71 36.45-19.71 11.38-19.71-11.38v-22.76l19.71-11.38 19.71 11.38v22.76Z"/><path d="m643.629 160.03-1.73 1c-.24.14-.32.44-.18.68a.495.495 0 0 0 .68.18l1.73-1c.24-.14.32-.44.18-.68a.496.496 0 0 0-.68-.18Zm4.982-2.87-1.52.88c-.24.14-.32.44-.18.68a.495.495 0 0 0 .68.18l1.52-.88c.24-.14.32-.44.18-.68a.493.493 0 0 0-.68-.18Zm-15.37 8.87-.72.42-.51-.29a.493.493 0 0 0-.68.18c-.14.24-.06.54.18.68l.51.29v.59c0 .28.22.5.5.5s.5-.22.5-.5v-.59l.72-.42c.24-.14.32-.44.18-.68a.493.493 0 0 0-.68-.18Zm5.189-3-1.73 1c-.24.14-.32.44-.18.68a.495.495 0 0 0 .68.18l1.73-1c.24-.14.32-.44.18-.68a.493.493 0 0 0-.68-.18Zm-15.08-1.87-1.73-1a.493.493 0 0 0-.68.18c-.14.24-.06.54.18.68l1.73 1a.495.495 0 0 0 .68-.18c.14-.24.06-.54-.18-.68Zm-5.199-3-1.73-1a.493.493 0 0 0-.68.18c-.14.24-.06.54.18.68l1.73 1a.495.495 0 0 0 .68-.18c.14-.24.06-.54-.18-.68Zm10.388 6-1.73-1a.493.493 0 0 0-.68.18c-.14.24-.06.54.18.68l1.73 1a.495.495 0 0 0 .68-.18c.14-.24.06-.54-.18-.68Zm3.971 7.25c-.28 0-.5.22-.5.5v2c0 .28.22.5.5.5s.5-.22.5-.5v-2c0-.28-.22-.5-.5-.5Zm0 12c-.28 0-.5.22-.5.5v2c0 .28.22.5.5.5s.5-.22.5-.5v-2c0-.28-.22-.5-.5-.5Zm0-6c-.28 0-.5.22-.5.5v2c0 .28.22.5.5.5s.5-.22.5-.5v-2c0-.28-.22-.5-.5-.5Zm-173.63-35.47-21.71 12.53v25.07l21.71 12.53 21.71-12.53v-25.07l-21.71-12.53Zm19.71 36.45-19.71 11.38-19.71-11.38v-22.76l19.71-11.38 19.71 11.38v22.76Z"/><path d="m470 160.08-1.73 1c-.24.14-.32.44-.18.68a.495.495 0 0 0 .68.18l1.73-1c.24-.14.32-.44.18-.68a.493.493 0 0 0-.68-.18Zm-5.201 3-1.73 1c-.24.14-.32.44-.18.68a.495.495 0 0 0 .68.18l1.73-1c.24-.14.32-.44.18-.68a.496.496 0 0 0-.68-.18Zm-5.189 3-.72.42-.51-.29a.493.493 0 0 0-.68.18c-.14.24-.06.54.18.68l.51.29v.59c0 .28.22.5.5.5s.5-.22.5-.5v-.59l.72-.42c.24-.14.32-.44.18-.68a.493.493 0 0 0-.68-.18Zm15.37-8.88-1.52.88c-.24.14-.32.44-.18.68a.495.495 0 0 0 .68.18l1.52-.88c.24-.14.32-.44.18-.68a.493.493 0 0 0-.68-.18Zm-30.46 1-1.73-1a.493.493 0 0 0-.68.18c-.14.24-.06.54.18.68l1.73 1a.495.495 0 0 0 .68-.18c.14-.24.06-.54-.18-.68Zm5.189 3-1.73-1a.493.493 0 0 0-.68.18c-.14.24-.06.54.18.68l1.73 1a.495.495 0 0 0 .68-.18c.14-.24.06-.54-.18-.68Zm5.202 3-1.73-1a.491.491 0 0 0-.68.18c-.14.24-.06.54.18.68l1.73 1a.495.495 0 0 0 .68-.18c.14-.24.06-.54-.18-.68Zm3.97 7.25c-.28 0-.5.22-.5.5v2c0 .28.22.5.5.5s.5-.22.5-.5v-2c0-.28-.22-.5-.5-.5Zm0 12c-.28 0-.5.22-.5.5v2c0 .28.22.5.5.5s.5-.22.5-.5v-2c0-.28-.22-.5-.5-.5Zm0-6c-.28 0-.5.22-.5.5v2c0 .28.22.5.5.5s.5-.22.5-.5v-2c0-.28-.22-.5-.5-.5Zm86.799 14.65-10.849 6.27-10.851 6.27v25.07l21.71 12.53 7.951-4.59 13.76-7.95v-25.07L545.69 192.1h-.01Zm19.711 36.45-19.711 11.38-19.71-11.38v-22.76l19.71-11.38 19.711 11.38v22.76Z"/><path d="m561.781 207.36-1.52.88c-.24.14-.32.44-.18.68a.495.495 0 0 0 .68.18l1.52-.88c.24-.14.32-.44.18-.68a.493.493 0 0 0-.68-.18Zm-10.181 5.88-1.73 1c-.24.14-.32.44-.18.68a.495.495 0 0 0 .68.18l1.73-1c.24-.14.32-.44.18-.68a.496.496 0 0 0-.68-.18Zm5.189-3-1.73 1c-.24.14-.32.44-.18.68a.495.495 0 0 0 .68.18l1.73-1c.24-.14.32-.44.18-.68a.493.493 0 0 0-.68-.18Zm-10.388 6-.72.42-.51-.29a.493.493 0 0 0-.68.18c-.14.24-.06.54.18.68l.51.29v.59c0 .28.22.5.5.5s.5-.22.5-.5v-.59l.72-.42c.24-.14.32-.44.18-.68a.493.493 0 0 0-.68-.18Zm-15.09-7.88-1.73-1a.493.493 0 0 0-.68.18c-.14.24-.06.54.18.68l1.73 1a.495.495 0 0 0 .68-.18c.14-.24.06-.54-.18-.68Zm10.398 6-1.73-1a.493.493 0 0 0-.68.18c-.14.24-.06.54.18.68l1.73 1a.495.495 0 0 0 .68-.18c.14-.24.06-.54-.18-.68Zm-5.199-3-1.73-1a.493.493 0 0 0-.68.18c-.14.24-.06.54.18.68l1.73 1a.495.495 0 0 0 .68-.18c.14-.24.06-.54-.18-.68Zm9.17 10.25c-.28 0-.5.22-.5.5v2c0 .28.22.5.5.5s.5-.22.5-.5v-2c0-.28-.22-.5-.5-.5Zm0 12c-.28 0-.5.22-.5.5v2c0 .28.22.5.5.5s.5-.22.5-.5v-2c0-.28-.22-.5-.5-.5Zm0-6c-.28 0-.5.22-.5.5v2c0 .28.22.5.5.5s.5-.22.5-.5v-2c0-.28-.22-.5-.5-.5Zm-130.34-59.96c.28 0 .5-.22.5-.5s-.22-.5-.5-.5l-86.52-.18c-.28 0-.5.22-.5.5s.22.5.5.5l86.52.18Zm174.32-.09c0-.28-.22-.5-.5-.5h-86.09c-.28 0-.5.22-.5.5s.22.5.5.5h86.09c.28 0 .5-.22.5-.5Zm174.41 0c0-.28-.22-.5-.5-.5h-86.83c-.28 0-.5.22-.5.5s.22.5.5.5h86.83c.28 0 .5-.22.5-.5Zm-326.559 23.81-33.18 19.16c-.24.14-.32.44-.18.68a.495.495 0 0 0 .68.18l33.18-19.16c.24-.14.32-.44.18-.68a.493.493 0 0 0-.68-.18Zm173.67 0-33.18 19.16c-.24.14-.32.44-.18.68a.495.495 0 0 0 .68.18l33.18-19.16c.24-.14.32-.44.18-.68a.493.493 0 0 0-.68-.18Zm195.069 38.9c.28 0 .5-.22.5-.5V204.7c0-.28-.22-.5-.5-.5s-.5.22-.5.5v25.07c0 .28.22.5.5.5Zm-.07 100.22c.28 0 .5-.22.5-.5l.06-25.15c0-.28-.22-.5-.5-.5s-.5.22-.5.5l-.06 25.15c0 .28.22.5.5.5Zm.5 99.83v-25.2c0-.28-.22-.5-.5-.5s-.5.22-.5.5v25.2c0 .28.22.5.5.5s.5-.22.5-.5Zm-21.771-37.98a.496.496 0 0 0-.68-.18l-32.66 18.88c-.24.14-.32.44-.18.68a.495.495 0 0 0 .68.18l32.66-18.88c.24-.14.32-.44.18-.68Zm-33.52-80.9a.495.495 0 0 0 .68.18l32.66-18.88c.24-.14.32-.44.18-.68a.496.496 0 0 0-.68-.18l-32.66 18.88c-.24.14-.32.44-.18.68Zm151.422-186.2-1.23 4.01.96.29 1.76-5.74-5.85-1.34-.22.98 4.09.94-42.67 24.64-21.45 12.38c-.08.05-.14.12-.18.2a.495.495 0 0 0 .68.67l.24-.14 21.71-12.53 42.17-24.35-.01-.01ZM1045.09 33.8l4.09.94-43.03 24.85c-.24.14-.32.44-.18.68a.495.495 0 0 0 .68.18l43.04-24.85-1.23 4.01.96.29 1.76-5.74-5.85-1.34-.22.98h-.02ZM397.04 409.5c.11.19.24.36.39.52.15.16.31.29.48.39.17.1.34.16.49.17.15.02.28 0 .39-.07.11-.06.2-.16.26-.3.06-.14.09-.31.09-.5s-.03-.4-.09-.61a2.896 2.896 0 0 0-.65-1.13 2.21 2.21 0 0 0-.49-.39c-.17-.1-.33-.15-.48-.16a.701.701 0 0 0-.39.07c-.11.06-.2.16-.26.3-.06.14-.1.3-.1.5s.03.41.1.62c.07.21.15.41.26.6v-.01Zm-5.289-3.05c.11.19.24.36.39.52.15.16.31.29.48.39.17.1.34.16.49.17.15.01.28 0 .39-.07.11-.06.2-.16.26-.3.06-.14.09-.3.09-.5s-.03-.4-.09-.61a2.896 2.896 0 0 0-.65-1.13 2.21 2.21 0 0 0-.49-.39c-.17-.1-.33-.15-.48-.17a.566.566 0 0 0-.39.08c-.11.07-.2.16-.26.3-.07.14-.1.3-.1.5s.03.41.1.62c.07.21.15.41.26.6v-.01Zm-3.541-4.06c-.11-.19-.24-.37-.39-.53-.15-.16-.32-.29-.49-.4-.17-.1-.33-.15-.48-.16a.627.627 0 0 0-.39.08c-.11.06-.2.16-.26.3-.06.14-.1.3-.1.5s.03.41.1.62c.07.21.15.41.26.6.11.19.24.36.39.52.15.16.31.29.48.38.17.1.34.16.49.17.15.02.28 0 .39-.07.11-.06.2-.16.26-.29.06-.14.09-.31.09-.51s-.03-.4-.09-.61c-.06-.21-.15-.41-.26-.6ZM1078.38 25l5.41-3.13 5.41-3.13V6.25l-7.93-4.58-2.9-1.68-10.83 6.25v12.5l4.2 2.43 6.63 3.83h.01Zm-8.82-17.59 8.83-5.1 8.83 5.1V17.6l-8.83 5.1-8.83-5.1V7.41Z"/><path d="M1085.39 8.49a.495.495 0 0 0 .68.18l.72-.41c.24-.14.32-.44.18-.68a.493.493 0 0 0-.68-.18l-.72.41c-.24.14-.32.44-.18.68Zm-5.2 3a.495.495 0 0 0 .68.18l1.73-1c.24-.14.32-.44.18-.68a.493.493 0 0 0-.68-.18l-1.73 1c-.24.14-.32.44-.18.68Zm-7.98-3.1-1.73-1a.493.493 0 0 0-.68.18c-.14.24-.06.54.18.68l1.73 1a.495.495 0 0 0 .68-.18c.14-.24.06-.54-.18-.68Zm5.2 3-1.73-1a.493.493 0 0 0-.68.18c-.14.24-.06.54.18.68l1.73 1a.495.495 0 0 0 .68-.18c.14-.24.06-.54-.18-.68Zm.97 11.06c.28 0 .5-.22.5-.5v-2c0-.28-.22-.5-.5-.5s-.5.22-.5.5v2c0 .28.22.5.5.5Zm0-9c-.28 0-.5.22-.5.5v2c0 .28.22.5.5.5s.5-.22.5-.5v-2c0-.28-.22-.5-.5-.5ZM520.921 555.04l108.67-62.47V467.5l-108.54-62.67-108.54 62.67-.12 24.86 108.54 62.67-.01.01Zm106.67-63.63-106.66 61.32-106.54-61.52.11-22.55 106.55-61.52 106.54 61.52v22.76-.01ZM108.67 166.62.12 229.29 0 254.15l108.54 62.67 108.67-62.47v-25.07l-108.54-62.67v.01Zm-.12 147.9L2.01 253l.11-22.55 106.55-61.52 106.54 61.52v22.76l-106.66 61.32v-.01Z"/><path d="m48.4 256.63-1.73-1a.493.493 0 0 0-.68.18c-.14.24-.06.54.18.68l1.73 1a.495.495 0 0 0 .68-.18c.14-.24.06-.54-.18-.68Zm109.3 6.91a.496.496 0 0 0-.68-.18l-1.73 1c-.24.14-.32.44-.18.68a.495.495 0 0 0 .68.18l1.73-1c.24-.14.32-.44.18-.68Zm20.81-11.97a.496.496 0 0 0-.68-.18l-1.73 1c-.24.14-.32.44-.18.68a.495.495 0 0 0 .68.18l1.73-1c.24-.14.32-.44.18-.68ZM7.04 233.26c.14-.24.06-.54-.18-.68l-1.73-1a.493.493 0 0 0-.68.18c-.14.24-.06.54.18.68l1.73 1a.495.495 0 0 0 .68-.18Zm72.52 41.4-1.73-1a.493.493 0 0 0-.68.18c-.14.24-.06.54.18.68l1.73 1a.495.495 0 0 0 .68-.18c.14-.24.06-.54-.18-.68Zm130.15-41.04a.496.496 0 0 0-.68-.18l-1.73 1c-.24.14-.32.44-.18.68a.495.495 0 0 0 .68.18l1.73-1c.24-.14.32-.44.18-.68ZM84.75 277.67l-1.73-1a.493.493 0 0 0-.68.18c-.14.24-.06.54.18.68l1.73 1a.495.495 0 0 0 .68-.18c.14-.24.06-.54-.18-.68Zm114.559-38.07a.496.496 0 0 0-.68-.18l-1.73 1c-.24.14-.32.44-.18.68a.495.495 0 0 0 .68.18l1.73-1c.24-.14.32-.44.18-.68Zm5.201-2.99a.496.496 0 0 0-.68-.18l-1.73 1c-.24.14-.32.44-.18.68a.495.495 0 0 0 .68.18l1.73-1c.24-.14.32-.44.18-.68Zm-20.8 11.97a.496.496 0 0 0-.68-.18l-1.73 1c-.24.14-.32.44-.18.68a.495.495 0 0 0 .68.18l1.73-1c.24-.14.32-.44.18-.68Zm5.201-2.99a.496.496 0 0 0-.68-.18l-1.73 1c-.24.14-.32.44-.18.68a.495.495 0 0 0 .68.18l1.73-1c.24-.14.32-.44.18-.68Zm5.199-3a.496.496 0 0 0-.68-.18l-1.73 1c-.24.14-.32.44-.18.68a.495.495 0 0 0 .68.18l1.73-1c.24-.14.32-.44.18-.68Zm-181.87-6.32c.14-.24.06-.54-.18-.68l-1.73-1a.493.493 0 0 0-.68.18c-.14.24-.06.54.18.68l1.73 1a.495.495 0 0 0 .68-.18Zm140.261 30.26a.496.496 0 0 0-.68-.18l-1.73 1c-.24.14-.32.44-.18.68a.495.495 0 0 0 .68.18l1.73-1c.24-.14.32-.44.18-.68Zm-78.141 5.13-1.73-1a.493.493 0 0 0-.68.18c-.14.24-.06.54.18.68l1.73 1a.495.495 0 0 0 .68-.18c.14-.24.06-.54-.18-.68Zm-5.19-3.01-1.73-1a.493.493 0 0 0-.68.18c-.14.24-.06.54.18.68l1.73 1a.495.495 0 0 0 .68-.18c.14-.24.06-.54-.18-.68Zm-5.19-3-1.73-1a.493.493 0 0 0-.68.18c-.14.24-.06.54.18.68l1.73 1a.495.495 0 0 0 .68-.18c.14-.24.06-.54-.18-.68Zm-10.39-6.02-1.73-1a.493.493 0 0 0-.68.18c-.14.24-.06.54.18.68l1.73 1a.495.495 0 0 0 .68-.18c.14-.24.06-.54-.18-.68Zm-36.16-20.36c.14-.24.06-.54-.18-.68l-1.73-1a.496.496 0 0 0-.68.18c-.14.24-.06.54.18.68l1.73 1a.495.495 0 0 0 .68-.18Zm5.19 3.01c.14-.24.06-.54-.18-.68l-1.73-1a.493.493 0 0 0-.68.18c-.14.24-.06.54.18.68l1.73 1a.495.495 0 0 0 .68-.18Zm5.01 2.32-1.73-1a.493.493 0 0 0-.68.18c-.14.24-.06.54.18.68l1.73 1a.495.495 0 0 0 .68-.18c.14-.24.06-.54-.18-.68Zm10.39 6.02-1.73-1a.493.493 0 0 0-.68.18c-.14.24-.06.54.18.68l1.73 1a.495.495 0 0 0 .68-.18c.14-.24.06-.54-.18-.68Zm5.19 3-1.73-1a.493.493 0 0 0-.68.18c-.14.24-.06.54.18.68l1.73 1a.495.495 0 0 0 .68-.18c.14-.24.06-.54-.18-.68Zm15.58 9.02-1.73-1a.493.493 0 0 0-.68.18c-.14.24-.06.54.18.68l1.73 1a.495.495 0 0 0 .68-.18c.14-.24.06-.54-.18-.68Zm-25.97-15.03-1.73-1a.493.493 0 0 0-.68.18c-.14.24-.06.54.18.68l1.73 1a.495.495 0 0 0 .68-.18c.14-.24.06-.54-.18-.68Zm72.7 42.09-1.73-1a.493.493 0 0 0-.68.18c-.14.24-.06.54.18.68l1.73 1a.495.495 0 0 0 .68-.18c.14-.24.06-.54-.18-.68Zm-5.19-3.01-1.73-1a.493.493 0 0 0-.68.18c-.14.24-.06.54.18.68l1.73 1a.495.495 0 0 0 .68-.18c.14-.24.06-.54-.18-.68Zm10.569 3.78a.496.496 0 0 0-.68-.18l-1.73 1c-.07.04-.12.09-.16.15-.26.02-.46.23-.45.5v.84c.01.27.23.5.51.5s.5-.23.5-.5v-.58s.07 0 .1-.03l1.73-1c.24-.14.32-.44.18-.68v-.02Zm36.401-20.95a.496.496 0 0 0-.68-.18l-1.73 1c-.24.14-.32.44-.18.68a.495.495 0 0 0 .68.18l1.73-1c.24-.14.32-.44.18-.68Zm26.009-14.96a.496.496 0 0 0-.68-.18l-1.73 1c-.24.14-.32.44-.18.68a.495.495 0 0 0 .68.18l1.73-1c.24-.14.32-.44.18-.68ZM89.94 280.68l-1.73-1a.493.493 0 0 0-.68.18c-.14.24-.06.54.18.68l1.73 1a.495.495 0 0 0 .68-.18c.14-.24.06-.54-.18-.68Zm5.199 3-1.73-1a.491.491 0 0 0-.68.18c-.14.24-.06.54.18.68l1.73 1a.495.495 0 0 0 .68-.18c.14-.24.06-.54-.18-.68Zm72.971-26.12a.496.496 0 0 0-.68-.18l-1.73 1c-.24.14-.32.44-.18.68a.495.495 0 0 0 .68.18l1.73-1c.24-.14.32-.44.18-.68Zm-5.199 2.99a.496.496 0 0 0-.68-.18l-1.73 1c-.24.14-.32.44-.18.68a.495.495 0 0 0 .68.18l1.73-1c.24-.14.32-.44.18-.68ZM131.7 278.5a.496.496 0 0 0-.68-.18l-1.73 1c-.24.14-.32.44-.18.68a.495.495 0 0 0 .68.18l1.73-1c.24-.14.32-.44.18-.68Zm10.4-5.98a.496.496 0 0 0-.68-.18l-1.73 1c-.24.14-.32.44-.18.68a.495.495 0 0 0 .68.18l1.73-1c.24-.14.32-.44.18-.68Zm-5.201 2.99a.496.496 0 0 0-.68-.18l-1.73 1c-.24.14-.32.44-.18.68a.495.495 0 0 0 .68.18l1.73-1c.24-.14.32-.44.18-.68ZM116.1 287.48a.496.496 0 0 0-.68-.18l-1.73 1c-.24.14-.32.44-.18.68a.495.495 0 0 0 .68.18l1.73-1c.24-.14.32-.44.18-.68Zm5.2-2.99a.496.496 0 0 0-.68-.18l-1.73 1c-.24.14-.32.44-.18.68a.495.495 0 0 0 .68.18l1.73-1c.24-.14.32-.44.18-.68Zm5.201-3a.496.496 0 0 0-.68-.18l-1.73 1c-.24.14-.32.44-.18.68a.495.495 0 0 0 .68.18l1.73-1c.24-.14.32-.44.18-.68Zm-17.981 26.78c-.28 0-.5.23-.5.5l.02 2c0 .27.23.5.5.5.28 0 .5-.23.5-.5l-.02-2c0-.28-.23-.48-.5-.5Zm-.029-3c.28 0 .5-.23.5-.5l-.02-2c0-.27-.23-.5-.5-.5-.28 0-.5.23-.5.5l.02 2c0 .27.23.5.5.5Zm-.061-6c.28 0 .5-.23.5-.5l-.02-2c0-.28-.26-.5-.5-.5-.28 0-.5.23-.5.5l.02 2c0 .27.23.5.5.5Zm65.22 55.06L282.19 417l108.67-62.47v-25.07l-108.54-62.67-108.54 62.67-.12 24.86-.01.01Zm215.21-.96L282.2 414.69l-106.54-61.52.11-22.55 106.55-61.52 106.54 61.52v22.76-.01Z"/><path d="M383.36 333.79a.496.496 0 0 0-.68-.18l-1.73 1c-.24.14-.32.44-.18.68a.495.495 0 0 0 .68.18l1.73-1c.24-.14.32-.44.18-.68Zm-135.34 38.04-1.73-1a.493.493 0 0 0-.68.18c-.14.24-.06.54.18.68l1.73 1a.495.495 0 0 0 .68-.18c.14-.24.06-.54-.18-.68Zm98.94-17.1a.496.496 0 0 0-.68-.18l-1.73 1c-.24.14-.32.44-.18.68a.495.495 0 0 0 .68.18l1.73-1c.24-.14.32-.44.18-.68Zm-88.559 23.11-1.73-1a.493.493 0 0 0-.68.18c-.14.24-.06.54.18.68l1.73 1a.495.495 0 0 0 .68-.18c.14-.24.06-.54-.18-.68Zm-15.58-9.02-1.73-1a.493.493 0 0 0-.68.18c-.14.24-.06.54.18.68l1.73 1a.495.495 0 0 0 .68-.18c.14-.24.06-.54-.18-.68Zm10.388 6.02-1.73-1a.493.493 0 0 0-.68.18c-.14.24-.06.54.18.68l1.73 1a.495.495 0 0 0 .68-.18c.14-.24.06-.54-.18-.68ZM227.25 359.8l-1.73-1a.493.493 0 0 0-.68.18c-.14.24-.06.54.18.68l1.73 1a.495.495 0 0 0 .68-.18c.14-.24.06-.54-.18-.68Zm36.34 21.05-1.73-1a.496.496 0 0 0-.68.18c-.14.24-.06.54.18.68l1.73 1a.495.495 0 0 0 .68-.18c.14-.24.06-.54-.18-.68Zm109.37-41.08a.496.496 0 0 0-.68-.18l-1.73 1c-.24.14-.32.44-.18.68a.495.495 0 0 0 .68.18l1.73-1c.24-.14.32-.44.18-.68Zm-140.52 23.04-1.73-1a.493.493 0 0 0-.68.18c-.14.24-.06.54.18.68l1.73 1a.495.495 0 0 0 .68-.18c.14-.24.06-.54-.18-.68Zm119.721-11.07a.496.496 0 0 0-.68-.18l-1.73 1c-.24.14-.32.44-.18.68a.495.495 0 0 0 .68.18l1.73-1c.24-.14.32-.44.18-.68Zm5.199-2.99a.496.496 0 0 0-.68-.18l-1.73 1c-.24.14-.32.44-.18.68a.495.495 0 0 0 .68.18l1.73-1c.24-.14.32-.44.18-.68Zm5.199-2.99a.496.496 0 0 0-.68-.18l-1.73 1c-.24.14-.32.44-.18.68a.495.495 0 0 0 .68.18l1.73-1c.24-.14.32-.44.18-.68Zm5.201-2.99a.496.496 0 0 0-.68-.18l-1.73 1c-.24.14-.32.44-.18.68a.495.495 0 0 0 .68.18l1.73-1c.24-.14.32-.44.18-.68Zm-26 14.96a.496.496 0 0 0-.68-.18l-1.73 1c-.24.14-.32.44-.18.68a.495.495 0 0 0 .68.18l1.73-1c.24-.14.32-.44.18-.68Zm-36.41 20.94a.496.496 0 0 0-.68-.18l-1.73 1c-.24.14-.32.44-.18.68a.495.495 0 0 0 .68.18l1.73-1c.24-.14.32-.44.18-.68Zm5.2-2.99a.496.496 0 0 0-.68-.18l-1.73 1c-.24.14-.32.44-.18.68a.495.495 0 0 0 .68.18l1.73-1c.24-.14.32-.44.18-.68Zm-10.401 5.98a.496.496 0 0 0-.68-.18l-1.73 1c-.24.14-.32.44-.18.68a.495.495 0 0 0 .68.18l1.73-1c.24-.14.32-.44.18-.68Zm15.611-8.97a.496.496 0 0 0-.68-.18l-1.73 1c-.24.14-.32.44-.18.68a.495.495 0 0 0 .68.18l1.73-1c.24-.14.32-.44.18-.68Zm-20.81 11.97a.496.496 0 0 0-.68-.18l-1.73 1c-.24.14-.32.44-.18.68a.495.495 0 0 0 .68.18l1.73-1c.24-.14.32-.44.18-.68Zm-10.4 5.98a.496.496 0 0 0-.68-.18l-1.73 1c-.07.04-.12.09-.16.15-.26.02-.46.23-.45.5v.84c.01.27.23.5.51.5s.5-.23.5-.5v-.58s.07 0 .1-.03l1.73-1c.24-.14.32-.44.18-.68v-.02Zm5.201-2.99a.496.496 0 0 0-.68-.18l-1.73 1c-.24.14-.32.44-.18.68a.495.495 0 0 0 .68.18l1.73-1c.24-.14.32-.44.18-.68Zm46.808-26.93a.496.496 0 0 0-.68-.18l-1.73 1c-.24.14-.32.44-.18.68a.495.495 0 0 0 .68.18l1.73-1c.24-.14.32-.44.18-.68Zm-67.77 23.13-1.73-1a.493.493 0 0 0-.68.18c-.14.24-.06.54.18.68l1.73 1a.495.495 0 0 0 .68-.18c.14-.24.06-.54-.18-.68Zm10.381 6.02-1.73-1a.493.493 0 0 0-.68.18c-.14.24-.06.54.18.68l1.73 1a.495.495 0 0 0 .68-.18c.14-.24.06-.54-.18-.68Zm-5.189-3.01-1.73-1a.493.493 0 0 0-.68.18c-.14.24-.06.54.18.68l1.73 1a.495.495 0 0 0 .68-.18c.14-.24.06-.54-.18-.68Zm57.379-23.15a.496.496 0 0 0-.68-.18l-1.73 1c-.24.14-.32.44-.18.68a.495.495 0 0 0 .68.18l1.73-1c.24-.14.32-.44.18-.68Zm-5.199 2.99a.496.496 0 0 0-.68-.18l-1.73 1c-.24.14-.32.44-.18.68a.495.495 0 0 0 .68.18l1.73-1c.24-.14.32-.44.18-.68Zm-5.201 3a.496.496 0 0 0-.68-.18l-1.73 1c-.24.14-.32.44-.18.68a.495.495 0 0 0 .68.18l1.73-1c.24-.14.32-.44.18-.68Zm57.201-32.92a.496.496 0 0 0-.68-.18l-1.73 1c-.24.14-.32.44-.18.68a.495.495 0 0 0 .68.18l1.73-1c.24-.14.32-.44.18-.68Zm-197.471-3.35c.14-.24.06-.54-.18-.68l-1.73-1a.493.493 0 0 0-.68.18c-.14.24-.06.54.18.68l1.73 1a.495.495 0 0 0 .68-.18Zm10.391 6.01c.14-.24.06-.54-.18-.68l-1.73-1a.493.493 0 0 0-.68.18c-.14.24-.06.54.18.68l1.73 1a.495.495 0 0 0 .68-.18Zm15.4 8.34-1.73-1a.493.493 0 0 0-.68.18c-.14.24-.06.54.18.68l1.73 1a.495.495 0 0 0 .68-.18c.14-.24.06-.54-.18-.68Zm-5.201-3.01-1.73-1a.493.493 0 0 0-.68.18c-.14.24-.06.54.18.68l1.73 1a.495.495 0 0 0 .68-.18c.14-.24.06-.54-.18-.68Zm36.349 21.05-1.73-1a.496.496 0 0 0-.68.18c-.14.24-.06.54.18.68l1.73 1a.495.495 0 0 0 .68-.18c.14-.24.06-.54-.18-.68Zm-51.74-29.38c.14-.24.06-.54-.18-.68l-1.73-1a.496.496 0 0 0-.68.18c-.14.24-.06.54.18.68l1.73 1a.495.495 0 0 0 .68-.18Zm10.381 6.01c.14-.24.06-.54-.18-.68l-1.73-1a.493.493 0 0 0-.68.18c-.14.24-.06.54.18.68l1.73 1a.495.495 0 0 0 .68-.18Zm25.779 14.35-1.73-1a.493.493 0 0 0-.68.18c-.14.24-.06.54.18.68l1.73 1a.495.495 0 0 0 .68-.18c.14-.24.06-.54-.18-.68Zm-5.189-3.01-1.73-1a.493.493 0 0 0-.68.18c-.14.24-.06.54.18.68l1.73 1a.495.495 0 0 0 .68-.18c.14-.24.06-.54-.18-.68Zm-5.19-3-1.73-1a.496.496 0 0 0-.68.18c-.14.24-.06.54.18.68l1.73 1a.495.495 0 0 0 .68-.18c.14-.24.06-.54-.18-.68Zm70.51 57.65c-.28 0-.5.23-.5.5l.02 2c0 .27.23.5.5.5.28 0 .5-.23.5-.5l-.02-2c0-.27-.23-.5-.5-.5Zm-.09-9c.28 0 .5-.23.5-.5l-.02-2c0-.28-.21-.49-.5-.5-.28 0-.5.23-.5.5l.02 2c0 .27.23.5.5.5Zm.049 6c.28 0 .5-.23.5-.5l-.02-2c0-.28-.27-.48-.5-.5-.28 0-.5.23-.5.5l.02 2c0 .27.23.5.5.5Z"/></g><defs><clipPath id="a"><path fill="#fff" d="M0 0h1089.21v655.31H0z"/></clipPath></defs></svg>