<svg width="321" height="113" viewBox="0 0 321 113" fill="none" xmlns="http://www.w3.org/2000/svg">
<rect x="27" y="26" width="132" height="62" rx="28" fill="#F5F5F5"/>
<rect x="45" y="42" width="97" height="30" rx="15" fill="black"/>
<rect width="19" height="88" fill="#F5F5F5"/>
<rect x="234" y="26" width="17" height="87" fill="#F5F5F5"/>
<rect x="165" y="26" width="64" height="62" rx="31" fill="#F5F5F5"/>
<rect x="234" y="26" width="64" height="62" rx="31" fill="#F5F5F5"/>
<path d="M251 56.5C251 48.4919 257.492 42 265.5 42V42C273.508 42 280 48.4919 280 56.5V56.5C280 64.5081 273.508 71 265.5 71V71C257.492 71 251 64.5081 251 56.5V56.5Z" fill="black"/>
<path d="M183 56.5C183 48.4919 189.492 42 197.5 42V42C205.508 42 212 48.4919 212 56.5V56.5C212 64.5081 205.508 71 197.5 71V71C189.492 71 183 64.5081 183 56.5V56.5Z" fill="black"/>
<path d="M299.015 38C298.898 38 298.84 37.9417 298.84 37.825V28.844C298.84 28.7273 298.898 28.669 299.015 28.669H300.996C301.113 28.669 301.171 28.7273 301.171 28.844V37.825C301.171 37.9417 301.113 38 300.996 38H299.015ZM303.021 38C302.904 38 302.846 37.9417 302.846 37.825V28.844C302.846 28.7273 302.904 28.669 303.021 28.669H306.997C307.109 28.669 307.202 28.7063 307.277 28.781L308.677 30.181C308.756 30.2603 308.796 30.3537 308.796 30.461V37.825C308.796 37.9417 308.738 38 308.621 38H306.64C306.523 38 306.465 37.9417 306.465 37.825V30.531H305.177V37.825C305.177 37.9417 305.119 38 305.002 38H303.021ZM312.05 38C311.933 38 311.875 37.9417 311.875 37.825V30.531H310.65C310.533 30.531 310.475 30.4727 310.475 30.356V28.844C310.475 28.7273 310.533 28.669 310.65 28.669H315.431C315.547 28.669 315.606 28.7273 315.606 28.844V30.356C315.606 30.4727 315.547 30.531 315.431 30.531H314.206V37.825C314.206 37.9417 314.147 38 314.031 38H312.05Z" fill="#F5F5F5"/>
</svg>
